<?xml version="1.0" standalone="no"?>
<!DOCTYPE svg PUBLIC "-//W3C//DTD SVG 20010904//EN"
 "http://www.w3.org/TR/2001/REC-SVG-20010904/DTD/svg10.dtd">
<svg version="1.0" xmlns="http://www.w3.org/2000/svg"
 width="267.000000pt" height="321.000000pt" viewBox="0 0 267.000000 321.000000"
 preserveAspectRatio="xMidYMid meet">

<g transform="translate(0.000000,321.000000) scale(0.100000,-0.100000)"
fill="#000000" stroke="none">
<path d="M1184 3180 c-114 -40 -208 -51 -309 -38 -77 11 -85 10 -128 -11 -25
-12 -53 -33 -61 -46 -15 -22 -15 -29 -2 -60 18 -43 59 -68 145 -91 95 -25 136
-48 208 -118 35 -35 61 -56 58 -48 -3 7 -8 24 -11 37 l-6 23 49 -24 c72 -35
94 -30 37 9 -50 33 -92 82 -81 93 14 14 99 -9 144 -40 83 -56 144 -213 128
-325 -21 -156 -97 -231 -232 -231 -137 1 -248 105 -271 253 l-8 52 -14 -60
c-9 -34 -14 -107 -14 -170 1 -101 8 -159 36 -288 l10 -47 44 39 c85 74 177 99
243 64 19 -10 36 -23 38 -28 2 -6 -31 -53 -72 -105 -274 -345 -383 -630 -331
-863 36 -159 147 -316 264 -374 50 -24 69 -28 147 -28 102 0 162 22 221 82
130 130 103 353 -51 429 -49 24 -64 26 -133 22 -83 -5 -142 -29 -209 -87 -31
-26 -32 -29 -22 -67 6 -21 13 -41 14 -43 2 -2 16 6 32 16 113 78 238 75 287
-7 22 -38 20 -56 -9 -105 -28 -49 -75 -75 -133 -75 -72 0 -173 98 -208 202
-25 77 -16 193 23 284 36 83 117 215 221 363 133 188 167 231 182 230 19 0 83
-48 110 -82 75 -96 81 -245 12 -319 -30 -32 -27 -34 19 -12 77 38 159 104 279
229 209 216 356 481 374 675 l6 65 -33 -90 c-76 -204 -179 -352 -282 -403 -96
-48 -225 -33 -283 33 -44 49 -48 87 -23 209 12 58 21 143 21 189 0 249 -167
462 -422 539 -43 13 -76 27 -75 33 8 25 155 32 212 10 19 -7 19 -7 -1 8 -11 8
-46 24 -78 34 l-58 19 48 37 c55 43 54 43 -52 7z"/>
<path d="M675 2831 c-11 -5 -29 -19 -40 -31 l-20 -23 23 12 c34 18 67 6 92
-34 12 -19 29 -39 38 -44 9 -5 15 -11 12 -13 -3 -3 -61 -32 -130 -65 -69 -34
-153 -82 -187 -107 -127 -95 -288 -294 -356 -438 -34 -72 -71 -185 -88 -273
-22 -111 -19 -431 6 -580 l20 -120 6 225 c10 366 51 528 150 600 72 52 127 50
175 -7 l21 -25 1 79 c3 184 115 400 319 613 41 44 91 89 109 101 l34 21 -22
39 c-33 59 -109 91 -163 70z"/>
<path d="M734 2558 c-61 -62 -129 -138 -151 -168 -90 -120 -154 -273 -152
-360 l1 -35 7 30 c26 106 122 185 226 185 57 0 100 -21 126 -63 l21 -32 -6 40
c-3 22 -9 99 -12 172 -7 141 3 224 36 301 11 23 18 42 16 42 -1 0 -52 -51
-112 -112z"/>
<path d="M2305 2628 c-22 -5 -50 -7 -62 -5 -28 5 -28 5 0 -41 38 -60 78 -170
99 -272 35 -166 25 -490 -18 -614 -8 -21 -14 -47 -14 -58 0 -10 -13 -48 -30
-83 -16 -35 -30 -69 -30 -75 0 -13 -44 -82 -87 -136 l-33 -41 54 15 c47 13 62
13 102 2 223 -63 247 -482 53 -900 -46 -98 -41 -96 31 15 69 106 172 318 208
430 64 195 99 437 87 610 -27 381 -177 831 -348 1038 -21 27 -37 50 -35 52 2
3 22 0 43 -6 21 -6 53 -9 70 -6 46 8 82 -2 93 -26 9 -19 11 -17 11 19 1 27 -6
50 -20 68 -18 23 -27 26 -77 25 -31 -1 -75 -5 -97 -11z"/>
<path d="M2224 2498 c-3 -161 -107 -373 -298 -608 -66 -81 -210 -229 -266
-273 -31 -24 -26 -23 45 12 177 86 297 111 364 77 46 -24 88 -80 101 -134 15
-64 -6 -157 -51 -220 -16 -24 -25 -41 -20 -37 16 9 71 92 107 160 145 276 165
787 42 1057 l-23 50 -1 -84z"/>
<path d="M790 944 c-26 -60 -47 -137 -55 -200 -6 -45 11 -178 30 -249 13 -46
-40 -71 -107 -49 -29 9 100 -142 223 -262 97 -93 164 -145 223 -169 32 -13 30
-11 -23 43 -32 31 -74 86 -94 122 -39 71 -82 197 -92 272 l-6 48 -23 -26 -22
-26 -27 23 c-22 20 -29 38 -38 100 -14 98 1 200 42 290 30 64 30 68 15 98 -9
17 -19 31 -22 31 -2 0 -13 -20 -24 -46z"/>
</g>
</svg>
