<?xml version="1.0" encoding="UTF-8" standalone="no"?>
<!-- Created with Inkscape (http://www.inkscape.org/) -->

<svg
   xmlns:dc="http://purl.org/dc/elements/1.1/"
   xmlns:cc="http://creativecommons.org/ns#"
   xmlns:rdf="http://www.w3.org/1999/02/22-rdf-syntax-ns#"
   xmlns:svg="http://www.w3.org/2000/svg"
   xmlns="http://www.w3.org/2000/svg"
   xmlns:sodipodi="http://sodipodi.sourceforge.net/DTD/sodipodi-0.dtd"
   xmlns:inkscape="http://www.inkscape.org/namespaces/inkscape"
   width="210mm"
   height="297mm"
   viewBox="0 0 210 297"
   version="1.1"
   id="svg8"
   inkscape:version="0.92.3 (2405546, 2018-03-11)"
   sodipodi:docname="Icone Xarxaria.svg">
  <defs
     id="defs2" />
  <sodipodi:namedview
     id="base"
     pagecolor="#ffffff"
     bordercolor="#666666"
     borderopacity="1.0"
     inkscape:pageopacity="0.0"
     inkscape:pageshadow="2"
     inkscape:zoom="0.49497475"
     inkscape:cx="400.78014"
     inkscape:cy="560.90609"
     inkscape:document-units="mm"
     inkscape:current-layer="layer4"
     showgrid="false"
     inkscape:snap-text-baseline="false"
     inkscape:window-width="1920"
     inkscape:window-height="1017"
     inkscape:window-x="-8"
     inkscape:window-y="-8"
     inkscape:window-maximized="1" />
  <metadata
     id="metadata5">
    <rdf:RDF>
      <cc:Work
         rdf:about="">
        <dc:format>image/svg+xml</dc:format>
        <dc:type
           rdf:resource="http://purl.org/dc/dcmitype/StillImage" />
        <dc:title></dc:title>
      </cc:Work>
    </rdf:RDF>
  </metadata>
  <g
     inkscape:groupmode="layer"
     id="layer3"
     inkscape:label="Reste du corps drake"
     style="display:inline">
    <path
       style="display:inline;fill:#000000;stroke:none;stroke-width:0.06482705"
       id="path3713"
       d="m 100.99112,46.442031 c -7.390285,2.593082 -13.484025,3.30618 -20.031555,2.463428 -4.99168,-0.713097 -5.5103,-0.648271 -8.29786,0.713097 -1.62068,0.777925 -3.43584,2.139293 -3.95445,2.982045 -0.97241,1.426195 -0.97241,1.879984 -0.12966,3.889623 1.16689,2.787563 3.8248,4.408239 9.39993,5.899261 6.15857,1.620677 8.81648,3.111699 13.48402,7.649592 2.26895,2.268947 3.95445,3.630315 3.75997,3.111697 -0.19448,-0.453786 -0.51861,-1.555848 -0.7131,-2.398599 l -0.38896,-1.491022 3.17653,1.555849 c 4.667545,2.268947 6.093735,1.944811 2.398599,-0.583444 -3.241349,-2.139292 -5.964089,-5.315818 -5.250989,-6.028915 0.90758,-0.907579 6.417865,0.583443 9.335085,2.593082 5.38065,3.630315 9.3351,13.808161 8.29787,21.068791 -1.36137,10.113021 -6.28823,14.975054 -15.039875,14.975054 -8.88131,-0.0648 -16.07711,-6.806846 -17.56813,-16.401248 l -0.51862,-3.371009 -0.90758,3.889624 c -0.58344,2.204119 -0.90757,6.936494 -0.90757,11.0206 0.0648,6.547533 0.51861,10.307503 2.33377,18.670193 l 0.64827,3.04687 2.85239,-2.52825 c 5.5103,-4.79721 11.47439,-6.41788 15.752969,-4.14894 1.23172,0.64828 2.333776,1.49103 2.463426,1.81516 0.12965,0.38896 -2.009636,3.43584 -4.667545,6.80684 -17.76261,22.36533 -24.82876,40.84104 -21.45775,55.94574 2.33377,10.3075 9.52958,20.48535 17.11434,24.24532 3.24135,1.55585 4.47307,1.81516 9.529575,1.81516 6.61236,0 10.50198,-1.4262 14.32678,-5.31582 8.42751,-8.42752 6.67718,-22.88395 -3.30619,-27.8108 -3.17652,-1.55586 -4.14893,-1.68551 -8.62199,-1.4262 -5.380646,0.32413 -9.205435,1.87998 -13.548855,5.63995 -2.00963,1.68551 -2.07446,1.87999 -1.42619,4.34342 0.38896,1.36136 0.84275,2.6579 0.90758,2.78756 0.12965,0.12965 1.03723,-0.38896 2.07446,-1.03724 7.325459,-5.05651 15.428835,-4.86202 18.605365,0.45379 1.42619,2.46343 1.29654,3.63032 -0.58345,6.80684 -1.81515,3.17653 -4.86202,4.86203 -8.62199,4.86203 -4.667545,0 -11.215075,-6.35305 -13.484025,-13.09506 -1.62068,-4.99168 -1.03723,-12.51162 1.49102,-18.41088 2.33378,-5.38065 7.58477,-13.93782 14.326775,-23.53222 8.622,-12.18748 10.82612,-14.97505 11.79852,-14.91022 1.23172,0 5.38065,3.1117 7.13098,5.31582 4.86203,6.2234 5.25099,15.88262 0.77792,20.67982 -1.94481,2.07447 -1.75033,2.20412 1.23172,0.77793 4.99168,-2.46343 10.3075,-6.74201 18.08674,-14.84539 13.54886,-14.00264 23.07843,-31.18181 24.24532,-43.758264 l 0.38896,-4.213759 -2.13929,5.834435 c -4.92686,13.224718 -11.60404,22.819128 -18.28123,26.125308 -6.2234,3.11169 -14.58608,2.13929 -18.34605,-2.1393 -2.85239,-3.17652 -3.1117,-5.63995 -1.49103,-13.54885 0.77793,-3.759973 1.36137,-9.270271 1.36137,-12.252316 0,-16.141935 -10.82612,-29.950097 -27.35701,-34.941779 -2.787556,-0.842752 -4.926855,-1.750331 -4.862025,-2.139293 0.51861,-1.620676 10.048185,-2.074466 13.743325,-0.648271 1.23172,0.45379 1.23172,0.45379 -0.0648,-0.518616 -0.7131,-0.518617 -2.98205,-1.555849 -5.05651,-2.20412 l -3.75997,-1.231714 3.1117,-2.3986 c 3.56548,-2.787564 3.50066,-2.787564 -3.37101,-0.45379 z"
       inkscape:connector-curvature="0" />
    <path
       style="display:inline;fill:#000000;stroke:none;stroke-width:0.06482705"
       id="path3723"
       d="m 75.449265,191.39532 c -1.6855,3.88962 -3.04687,8.8813 -3.56549,12.9654 -0.38896,2.91722 0.7131,11.53922 1.94482,16.14194 0.84275,2.98204 -2.59309,4.60272 -6.9365,3.17652 -1.87998,-0.58344 6.48271,9.20544 14.45643,16.98469 6.28823,6.02892 10.63164,9.39992 14.45644,10.95577 2.074459,0.84275 1.94481,0.7131 -1.49103,-2.78756 -2.07446,-2.00964 -4.7972,-5.57513 -6.09374,-7.9089 -2.52825,-4.60272 -5.31582,-12.77093 -5.96409,-17.63296 l -0.38896,-3.1117 -1.49102,1.68551 -1.4262,1.6855 -1.75033,-1.49102 c -1.42619,-1.29654 -1.87998,-2.46343 -2.46343,-6.48271 -0.90757,-6.35305 0.0648,-12.96541 2.72274,-18.79984 1.94481,-4.14893 1.94481,-4.40824 0.97241,-6.35305 -0.58345,-1.10206 -1.23172,-2.00964 -1.4262,-2.00964 -0.12965,0 -0.84275,1.29654 -1.55585,2.98205 z"
       inkscape:connector-curvature="0" />
  </g>
  <g
     inkscape:groupmode="layer"
     id="layer4"
     inkscape:label="Titre"
     style="display:inline">
    <text
       xml:space="preserve"
       style="font-style:normal;font-weight:normal;font-size:33.8364563px;line-height:1.25;font-family:sans-serif;letter-spacing:0px;word-spacing:0px;display:inline;fill:#ffcc00;fill-opacity:1;stroke:none;stroke-width:0.84591138"
       x="7.3164816"
       y="192.8273"
       id="text3744"><tspan
         sodipodi:role="line"
         id="tspan3742"
         x="7.3164816"
         y="192.8273"
         style="font-style:normal;font-variant:normal;font-weight:normal;font-stretch:extra-condensed;font-size:33.8363266px;font-family:Algerian;-inkscape-font-specification:'Algerian, Extra-Condensed';font-variant-ligatures:normal;font-variant-caps:normal;font-variant-numeric:normal;font-feature-settings:normal;text-align:start;writing-mode:lr-tb;text-anchor:start;fill:#ffcc00;stroke-width:0.84591138">Xarxaria</tspan></text>
  </g>
  <g
     inkscape:label="Ailes drake"
     inkscape:groupmode="layer"
     id="layer1"
     style="display:inline">
    <g
       id="g3725"
       transform="matrix(0.06482705,0,0,-0.06482705,23.811824,254.16117)"
       style="fill:#000000;stroke:none">
      <path
         id="path3715"
         d="m 675,2831 c -11,-5 -29,-19 -40,-31 l -20,-23 23,12 c 34,18 67,6 92,-34 12,-19 29,-39 38,-44 9,-5 15,-11 12,-13 -3,-3 -61,-32 -130,-65 C 581,2599 497,2551 463,2526 336,2431 175,2232 107,2088 73,2016 36,1903 19,1815 -3,1704 0,1384 25,1235 l 20,-120 6,225 c 10,366 51,528 150,600 72,52 127,50 175,-7 l 21,-25 1,79 c 3,184 115,400 319,613 41,44 91,89 109,101 l 34,21 -22,39 c -33,59 -109,91 -163,70 z"
         inkscape:connector-curvature="0" />
      <path
         id="path3719"
         d="m 2305,2628 c -22,-5 -50,-7 -62,-5 -28,5 -28,5 0,-41 38,-60 78,-170 99,-272 35,-166 25,-490 -18,-614 -8,-21 -14,-47 -14,-58 0,-10 -13,-48 -30,-83 -16,-35 -30,-69 -30,-75 0,-13 -44,-82 -87,-136 l -33,-41 54,15 c 47,13 62,13 102,2 223,-63 247,-482 53,-900 -46,-98 -41,-96 31,15 69,106 172,318 208,430 64,195 99,437 87,610 -27,381 -177,831 -348,1038 -21,27 -37,50 -35,52 2,3 22,0 43,-6 21,-6 53,-9 70,-6 46,8 82,-2 93,-26 9,-19 11,-17 11,19 1,27 -6,50 -20,68 -18,23 -27,26 -77,25 -31,-1 -75,-5 -97,-11 z"
         inkscape:connector-curvature="0" />
      <path
         id="path3717"
         d="M 734,2558 C 673,2496 605,2420 583,2390 493,2270 429,2117 431,2030 l 1,-35 7,30 c 26,106 122,185 226,185 57,0 100,-21 126,-63 l 21,-32 -6,40 c -3,22 -9,99 -12,172 -7,141 3,224 36,301 11,23 18,42 16,42 -1,0 -52,-51 -112,-112 z"
         inkscape:connector-curvature="0" />
      <path
         id="path3721"
         d="m 2224,2498 c -3,-161 -107,-373 -298,-608 -66,-81 -210,-229 -266,-273 -31,-24 -26,-23 45,12 177,86 297,111 364,77 46,-24 88,-80 101,-134 15,-64 -6,-157 -51,-220 -16,-24 -25,-41 -20,-37 16,9 71,92 107,160 145,276 165,787 42,1057 l -23,50 z"
         inkscape:connector-curvature="0" />
    </g>
    <flowRoot
       xml:space="preserve"
       id="flowRoot3746"
       style="font-style:normal;font-weight:normal;font-size:40px;line-height:1.25;font-family:sans-serif;letter-spacing:0px;word-spacing:0px;fill:#000000;fill-opacity:1;stroke:none"
       transform="scale(0.26458333)"><flowRegion
         id="flowRegion3748"><rect
           id="rect3750"
           width="82.832512"
           height="70.710678"
           x="-545.48236"
           y="278.03217" /></flowRegion><flowPara
         id="flowPara3752"></flowPara></flowRoot>  </g>
</svg>
